# xmcd
#
# Track frame offsets: 
#        150
#        19865
#        38167
#        55345
#        71317
#        88437
#        103790
#        119020
#        144090
#        167110
#        185470
#        202505
#
# Disc length: 2991 seconds
#
# Revision: 4
# Processed by: cddbd v1.5.2PL0 Copyright (c) Steve Scherf et al.
# Submitted via: ExactAudioCopy v0.95a5
#
DISCID=a20bad0c
DTITLE=Mary-Chapin Carpenter - Come On Come On
DYEAR=1992
DGENRE=Country
TTITLE0=The Hard Way
TTITLE1=He Thinks He'll Keep Her
TTITLE2=Rhythm Of The Blues
TTITLE3=I Feel Lucky
TTITLE4=The Bug
TTITLE5=Not Too Much To Ask (duet with Joe Diffie)
TTITLE6=Passionate Kisses
TTITLE7=Only A Dream
TTITLE8=I Am A Town
TTITLE9=Walking Through Fire
TTITLE10=I Take My Chances
TTITLE11=Come On Come On
EXTD=YEAR: 1992 ID3G: 80
EXTT0=
EXTT1=
EXTT2=
EXTT3=
EXTT4=
EXTT5=
EXTT6=
EXTT7=
EXTT8=
EXTT9=
EXTT10=
EXTT11=
PLAYORDER=
